<?xml version="1.0" encoding="iso-8859-1"?>
<!-- Generator: Adobe Illustrator 16.0.0, SVG Export Plug-In . SVG Version: 6.00 Build 0)  -->
<!DOCTYPE svg PUBLIC "-//W3C//DTD SVG 1.1//EN" "http://www.w3.org/Graphics/SVG/1.1/DTD/svg11.dtd">
<svg version="1.1" id="Capa_1" xmlns="http://www.w3.org/2000/svg" xmlns:xlink="http://www.w3.org/1999/xlink" x="0px" y="0px"
	 width="568.905px" height="568.905px" viewBox="0 0 568.905 568.905" style="enable-background:new 0 0 568.905 568.905;"
	 xml:space="preserve">
<g>
	<g>
		<path fill="#636363" d="M280.828,32.064c27.646,0,50.052,22.41,50.052,50.056c0,27.641-22.406,50.056-50.052,50.056s-50.052-22.415-50.052-50.056
			C230.776,54.475,253.183,32.064,280.828,32.064L280.828,32.064z"/>
		<path fill="#636363" d="M417.85,14.95l-0.729-0.321l-0.087-0.026l-9.194-3.873c-10.522-4.416-15.346,4.203-16.812,7.698L366.957,80.45
			c-0.165,0.46-6.584,16.204-16.733,27.607l-32.304,36.268c-0.018,0.009-0.018,0.009-0.018,0.031
			c-8.414,9.455-18.441,10.609-22.085,10.695h-47.024c-11.034,0-16.837-5.036-18.858-7.213
			c-9.56-11.606-21.734-34.529-28.617-48.191c-4.966-9.616-1.796-16.659-0.49-18.897l33.826-54.805c0,0,0,0,0-0.009
			c7.66-12.409-3.322-18.589-3.322-18.589l-8.943-5.617c-0.009,0-0.009,0-0.026,0c-10.092-6.306-17.253,6.662-17.253,6.662
			L162.4,82.281c-1.648,3.01-7.265,15.076,0.429,29.433l97.458,182.021c0.911,1.7,5.344,11.012-0.182,17.042l-60.864,66.39l0,0
			c0,0-0.056,0.052-0.056,0.087l-2.698,2.932c-4.303,5.083-12.773,17.098-18.299,38.255l0,0l-34.403,131.357
			c-1.049,4.259-3.773,19.109,9.36,19.109h23.534c3.579-0.112,14.209-1.726,19.257-17.73v-0.018l26.644-102.602
			c0-0.017,0.008-0.017,0.026-0.052c4.771-18.407,14.573-28.999,18.242-32.46c0.391-0.364,0.894-0.833,1.301-1.231
			c0.061-0.026,0.217-0.156,0.217-0.156v-0.035c11.277-10.322,30.673-28.938,62.196-61.142v0.034c0,0,7.668-8.023,7.13-0.047
			c-3.981,63.566-29.372,164.294-39.122,201.213c-1.023,4.996-1.431,14.209,9.577,14.209h25.034
			c4.112-0.33,12.978-2.794,16.69-17.453c12.23-48.092,45.939-180.915,52.706-210.218c2.992-12.873,4.016-23.521,4.172-32.018
			c-0.391-15.731-7.954-34.542-7.954-34.542v-0.021l-6.333-12.695l-27.515-51.47c-7.755-14.517-2.403-23.508-0.573-25.954
			l0.504-0.659c0.025,0,0.086-0.078,0.086-0.078l47.814-61.61c10.808-13.94,17.105-30.252,17.132-30.309l19.978-52.719
			C430.376,21.967,420.729,16.238,417.85,14.95L417.85,14.95z"/>
	</g>
</g>
<g>
</g>
<g>
</g>
<g>
</g>
<g>
</g>
<g>
</g>
<g>
</g>
<g>
</g>
<g>
</g>
<g>
</g>
<g>
</g>
<g>
</g>
<g>
</g>
<g>
</g>
<g>
</g>
<g>
</g>
</svg>
